<?xml version="1.0" standalone="no"?>
<!DOCTYPE svg PUBLIC "-//W3C//DTD SVG 20010904//EN"
 "http://www.w3.org/TR/2001/REC-SVG-20010904/DTD/svg10.dtd">
<svg version="1.0" xmlns="http://www.w3.org/2000/svg"
 width="259.000000pt" height="259.000000pt" viewBox="0 0 259.000000 259.000000"
 preserveAspectRatio="xMidYMid meet">
<metadata>
Created by potrace 1.14, written by Peter Selinger 2001-2017
</metadata>
<g transform="translate(0.000000,259.000000) scale(0.100000,-0.100000)"
fill="#000000" stroke="none">
<path d="M0 1300 l0 -1000 1295 0 1295 0 0 1000 0 1000 -1295 0 -1295 0 0
-1000z m664 201 c11 -17 -24 -41 -59 -41 -32 0 -35 -4 -109 -135 -42 -74 -84
-141 -92 -150 -17 -17 -60 -20 -69 -5 -3 5 30 72 75 149 44 76 80 142 80 146
0 4 -13 5 -29 2 -34 -7 -44 0 -31 23 8 15 26 18 119 19 60 1 112 -3 115 -8z
m656 -4 c0 -22 -23 -37 -56 -37 -30 0 -36 -6 -109 -132 -43 -73 -84 -141 -93
-150 -16 -20 -57 -24 -67 -8 -4 6 6 10 22 10 31 0 53 16 53 36 0 20 -47 11
-65 -11 -19 -23 -6 1 79 147 63 108 67 123 32 114 -26 -6 -41 6 -33 28 8 19
237 22 237 3z m850 4 c0 -4 -16 -32 -35 -64 l-34 -57 39 6 c42 7 90 -14 90
-39 0 -6 -22 -50 -49 -97 -45 -80 -50 -84 -84 -87 -20 -1 -39 2 -41 6 -3 4 15
42 39 84 25 42 45 79 45 82 0 4 -15 5 -32 3 -29 -3 -37 -11 -67 -65 -24 -43
-38 -60 -46 -53 -17 14 -47 5 -63 -18 -13 -20 -13 -22 4 -22 18 -1 18 -1 1
-11 -45 -26 -31 16 60 174 l96 168 39 -3 c21 -1 38 -4 38 -7z m-845 -91 c3 -5
1 -10 -4 -10 -6 0 -11 5 -11 10 0 6 2 10 4 10 3 0 8 -4 11 -10z m-40 -9 c-9
-8 -36 -10 -30 -2 2 4 11 8 20 8 8 0 13 -3 10 -6z m-625 -24 c8 1 34 5 56 8
51 9 63 -5 37 -41 -15 -20 -30 -27 -66 -30 -64 -5 -73 -11 -111 -79 -18 -32
-39 -61 -47 -63 -10 -4 -9 0 4 15 24 27 21 39 -9 38 -30 -2 -54 -33 -34 -45 8
-5 7 -9 -4 -13 -32 -13 -26 16 25 106 69 122 67 119 103 111 17 -4 38 -7 46
-7z m228 -2 c1 -1 -16 -34 -38 -72 -22 -39 -40 -75 -40 -82 0 -13 29 -15 48
-3 13 9 82 121 95 155 5 13 18 17 52 17 25 0 45 -3 45 -7 -1 -5 -29 -55 -63
-113 l-63 -105 -64 -1 c-36 -1 -72 2 -80 7 -11 6 -6 8 18 9 31 0 32 0 13 19
-39 39 -105 27 -71 -14 11 -13 10 -14 -4 -9 -26 10 -19 41 32 131 l47 84 35
-6 c19 -4 36 -8 38 -10z m534 -2 c10 -9 18 -20 18 -25 0 -5 -18 -40 -41 -78
-45 -76 -95 -110 -160 -110 -67 0 -63 17 5 22 49 3 72 9 86 24 20 20 20 20 -3
19 -13 -1 -34 -9 -47 -18 -30 -21 -56 -22 -67 -3 -4 8 -21 17 -36 20 -33 6
-46 -15 -26 -42 13 -15 12 -16 -3 -3 -10 7 -18 20 -18 29 0 24 70 137 94 152
50 32 168 40 198 13z m144 9 c21 -7 20 -9 -22 -82 -24 -41 -44 -78 -44 -82 0
-15 48 -8 61 9 8 9 32 48 54 87 39 69 42 71 83 74 23 2 42 -1 42 -6 0 -5 -27
-56 -60 -113 l-60 -104 -68 -1 c-37 -1 -74 2 -82 7 -10 6 -3 9 25 9 34 1 37 3
18 10 -13 5 -23 15 -23 23 0 15 -51 17 -62 3 -4 -6 -2 -19 4 -30 10 -19 10
-20 -5 -7 -24 19 -22 32 19 103 68 119 66 116 120 100z m375 -11 c20 -16 21
-21 10 -35 -15 -18 -51 -22 -51 -6 0 17 -46 11 -62 -7 -15 -18 -58 -97 -58
-108 0 -11 42 -4 65 11 23 15 25 15 32 -1 12 -34 -81 -75 -134 -59 -25 7 -22
8 27 14 53 5 107 26 97 37 -3 3 -16 -2 -29 -11 -29 -21 -54 -20 -70 2 -7 10
-24 17 -38 17 -19 0 -25 -5 -24 -23 0 -12 -3 -22 -8 -22 -32 0 42 157 84 177
79 36 127 40 159 14z m59 -175 c0 -2 -8 -10 -17 -17 -16 -13 -17 -12 -4 4 13
16 21 21 21 13z"/>
<path d="M358 1208 l-23 -23 28 -3 c26 -3 56 18 57 41 0 16 -41 6 -62 -15z"/>
<path d="M2085 1206 c-15 -20 -14 -21 11 -24 22 -3 52 18 54 38 1 16 -52 5
-65 -14z"/>
<path d="M871 1208 c-29 -23 -26 -28 14 -28 24 0 37 6 45 19 13 26 14 26 -14
26 -14 0 -34 -7 -45 -17z"/>
<path d="M1278 1323 c-25 -29 -62 -102 -55 -109 18 -18 58 9 86 60 17 29 31
56 31 60 0 14 -48 5 -62 -11z"/>
<path d="M1562 1209 c-25 -19 -19 -29 18 -29 27 0 50 16 50 35 0 17 -45 13
-68 -6z"/>
</g>
</svg>
